<mxfile host="app.diagrams.net" agent="Mozilla/5.0 (Macintosh; Intel Mac OS X 10_15_7) AppleWebKit/537.36 (KHTML, like Gecko) Chrome/131.0.0.0 Safari/537.36" version="25.0.3" pages="3">
  <diagram name="Page-1" id="e7e014a7-5840-1c2e-5031-d8a46d1fe8dd">
    <mxGraphModel dx="1546" dy="1150" grid="1" gridSize="10" guides="1" tooltips="1" connect="1" arrows="1" fold="1" page="0" pageScale="1" pageWidth="1169" pageHeight="826" background="none" math="0" shadow="0">
      <root>
        <mxCell id="0" />
        <mxCell id="1" parent="0" />
        <mxCell id="-rTpoJskEA2qMRCyLxb6-43" value="HTTPBIN" style="shape=image;html=1;verticalAlign=top;verticalLabelPosition=bottom;labelBackgroundColor=#ffffff;imageAspect=0;aspect=fixed;image=https://cdn1.iconfinder.com/data/icons/material-core/24/cloud-queue-128.png" parent="1" vertex="1">
          <mxGeometry x="1376" y="-20" width="128" height="128" as="geometry" />
        </mxCell>
        <mxCell id="-rTpoJskEA2qMRCyLxb6-89" style="edgeStyle=orthogonalEdgeStyle;rounded=0;orthogonalLoop=1;jettySize=auto;html=1;entryX=0.766;entryY=0;entryDx=0;entryDy=0;entryPerimeter=0;" parent="1" source="-rTpoJskEA2qMRCyLxb6-48" target="-rTpoJskEA2qMRCyLxb6-72" edge="1">
          <mxGeometry relative="1" as="geometry">
            <Array as="points">
              <mxPoint x="449" y="490" />
              <mxPoint x="449" y="490" />
            </Array>
          </mxGeometry>
        </mxCell>
        <mxCell id="-rTpoJskEA2qMRCyLxb6-100" style="edgeStyle=orthogonalEdgeStyle;rounded=0;orthogonalLoop=1;jettySize=auto;html=1;entryX=1;entryY=0.3;entryDx=0;entryDy=0;" parent="1" source="-rTpoJskEA2qMRCyLxb6-48" target="-rTpoJskEA2qMRCyLxb6-54" edge="1">
          <mxGeometry relative="1" as="geometry">
            <Array as="points">
              <mxPoint x="190" y="310" />
              <mxPoint x="190" y="438" />
            </Array>
          </mxGeometry>
        </mxCell>
        <mxCell id="-rTpoJskEA2qMRCyLxb6-48" value="Feeding" style="whiteSpace=wrap;html=1;aspect=fixed;" parent="1" vertex="1">
          <mxGeometry x="350" y="220" width="180" height="180" as="geometry" />
        </mxCell>
        <mxCell id="-rTpoJskEA2qMRCyLxb6-51" style="edgeStyle=orthogonalEdgeStyle;rounded=0;orthogonalLoop=1;jettySize=auto;html=1;" parent="1" source="-rTpoJskEA2qMRCyLxb6-49" target="-rTpoJskEA2qMRCyLxb6-43" edge="1">
          <mxGeometry relative="1" as="geometry" />
        </mxCell>
        <mxCell id="-rTpoJskEA2qMRCyLxb6-98" style="edgeStyle=orthogonalEdgeStyle;rounded=0;orthogonalLoop=1;jettySize=auto;html=1;entryX=0.5;entryY=1;entryDx=0;entryDy=0;exitX=0.5;exitY=1;exitDx=0;exitDy=0;" parent="1" source="-rTpoJskEA2qMRCyLxb6-49" target="-rTpoJskEA2qMRCyLxb6-54" edge="1">
          <mxGeometry relative="1" as="geometry" />
        </mxCell>
        <mxCell id="-rTpoJskEA2qMRCyLxb6-49" value="Posting" style="whiteSpace=wrap;html=1;aspect=fixed;" parent="1" vertex="1">
          <mxGeometry x="1350" y="209" width="180" height="180" as="geometry" />
        </mxCell>
        <mxCell id="-rTpoJskEA2qMRCyLxb6-101" style="edgeStyle=orthogonalEdgeStyle;rounded=0;orthogonalLoop=1;jettySize=auto;html=1;entryX=0;entryY=0.75;entryDx=0;entryDy=0;" parent="1" source="-rTpoJskEA2qMRCyLxb6-54" target="-rTpoJskEA2qMRCyLxb6-48" edge="1">
          <mxGeometry relative="1" as="geometry" />
        </mxCell>
        <mxCell id="-rTpoJskEA2qMRCyLxb6-54" value="MongoDB" style="shape=datastore;whiteSpace=wrap;html=1;" parent="1" vertex="1">
          <mxGeometry x="860" y="570" width="110" height="100" as="geometry" />
        </mxCell>
        <mxCell id="-rTpoJskEA2qMRCyLxb6-82" style="edgeStyle=orthogonalEdgeStyle;rounded=0;orthogonalLoop=1;jettySize=auto;html=1;entryX=0.25;entryY=1;entryDx=0;entryDy=0;" parent="1" source="-rTpoJskEA2qMRCyLxb6-72" target="-rTpoJskEA2qMRCyLxb6-49" edge="1">
          <mxGeometry relative="1" as="geometry" />
        </mxCell>
        <mxCell id="-rTpoJskEA2qMRCyLxb6-90" style="edgeStyle=orthogonalEdgeStyle;rounded=0;orthogonalLoop=1;jettySize=auto;html=1;entryX=0.25;entryY=1;entryDx=0;entryDy=0;" parent="1" source="-rTpoJskEA2qMRCyLxb6-72" target="-rTpoJskEA2qMRCyLxb6-48" edge="1">
          <mxGeometry relative="1" as="geometry">
            <Array as="points">
              <mxPoint x="395" y="650" />
              <mxPoint x="395" y="650" />
            </Array>
          </mxGeometry>
        </mxCell>
        <mxCell id="-rTpoJskEA2qMRCyLxb6-72" value="Message Queue" style="verticalLabelPosition=bottom;html=1;verticalAlign=top;align=center;strokeColor=none;fillColor=#00BEF2;shape=mxgraph.azure.queue_generic;pointerEvents=1;" parent="1" vertex="1">
          <mxGeometry x="810" y="244" width="260" height="110" as="geometry" />
        </mxCell>
        <mxCell id="-rTpoJskEA2qMRCyLxb6-80" value="1.Store data in DB with INIT status" style="text;html=1;align=center;verticalAlign=middle;resizable=0;points=[];autosize=1;strokeColor=none;fillColor=none;" parent="1" vertex="1">
          <mxGeometry x="90" y="280" width="200" height="20" as="geometry" />
        </mxCell>
        <mxCell id="-rTpoJskEA2qMRCyLxb6-81" value="2.Create a message in Queue &lt;br&gt;with DB ID" style="text;html=1;align=center;verticalAlign=middle;resizable=0;points=[];autosize=1;strokeColor=none;fillColor=none;" parent="1" vertex="1">
          <mxGeometry x="430" y="455" width="180" height="30" as="geometry" />
        </mxCell>
        <mxCell id="-rTpoJskEA2qMRCyLxb6-83" value="3.Produce convert messages" style="text;html=1;align=center;verticalAlign=middle;resizable=0;points=[];autosize=1;strokeColor=none;fillColor=none;" parent="1" vertex="1">
          <mxGeometry x="495" y="720" width="170" height="20" as="geometry" />
        </mxCell>
        <mxCell id="-rTpoJskEA2qMRCyLxb6-84" value="4. Produce message for updating DB Item&amp;nbsp;" style="text;html=1;align=center;verticalAlign=middle;resizable=0;points=[];autosize=1;strokeColor=none;fillColor=none;" parent="1" vertex="1">
          <mxGeometry x="70" y="580" width="240" height="20" as="geometry" />
        </mxCell>
        <mxCell id="-rTpoJskEA2qMRCyLxb6-85" value="5. Send for updating DB Item" style="text;html=1;align=center;verticalAlign=middle;resizable=0;points=[];autosize=1;strokeColor=none;fillColor=none;" parent="1" vertex="1">
          <mxGeometry x="200" y="420" width="170" height="20" as="geometry" />
        </mxCell>
        <mxCell id="-rTpoJskEA2qMRCyLxb6-87" value="Send to HTTP_METHOD&lt;br&gt;(POST/PUT/DELETE)&amp;nbsp;" style="text;html=1;align=center;verticalAlign=middle;resizable=0;points=[];autosize=1;strokeColor=none;fillColor=none;" parent="1" vertex="1">
          <mxGeometry x="1446" y="139" width="150" height="30" as="geometry" />
        </mxCell>
        <mxCell id="-rTpoJskEA2qMRCyLxb6-104" value="6.Consume data to service" style="text;html=1;align=center;verticalAlign=middle;resizable=0;points=[];autosize=1;strokeColor=none;fillColor=none;" parent="1" vertex="1">
          <mxGeometry x="215" y="650" width="160" height="20" as="geometry" />
        </mxCell>
        <mxCell id="-rTpoJskEA2qMRCyLxb6-107" value="S3 Bucket" style="shape=image;html=1;verticalAlign=top;verticalLabelPosition=bottom;labelBackgroundColor=#ffffff;imageAspect=0;aspect=fixed;image=https://cdn1.iconfinder.com/data/icons/material-core/24/cloud-queue-128.png" parent="1" vertex="1">
          <mxGeometry x="376" y="-20" width="128" height="128" as="geometry" />
        </mxCell>
      </root>
    </mxGraphModel>
  </diagram>
  <diagram id="KYWX_zC7HAEDMaoBQ_PM" name="movie-rating-aggregation-platform">
    <mxGraphModel dx="1599" dy="748" grid="1" gridSize="10" guides="1" tooltips="1" connect="1" arrows="1" fold="1" page="1" pageScale="1" pageWidth="1169" pageHeight="827" math="0" shadow="0">
      <root>
        <mxCell id="Vo65l_AbovjOqgqE3y9q-0" />
        <mxCell id="Vo65l_AbovjOqgqE3y9q-1" parent="Vo65l_AbovjOqgqE3y9q-0" />
        <mxCell id="b7_qu-6GaD03MjOTZ5Wr-14" value="" style="swimlane;html=1;startSize=20;fontStyle=0;collapsible=0;horizontal=0;swimlaneLine=0;fillColor=none;" vertex="1" parent="Vo65l_AbovjOqgqE3y9q-1">
          <mxGeometry x="40" y="30" width="250" height="340" as="geometry" />
        </mxCell>
        <mxCell id="b7_qu-6GaD03MjOTZ5Wr-18" value="Data Sources" style="text;html=1;strokeColor=none;fillColor=none;align=center;verticalAlign=middle;whiteSpace=wrap;rounded=0;" vertex="1" parent="b7_qu-6GaD03MjOTZ5Wr-14">
          <mxGeometry x="10" y="10" width="120" height="30" as="geometry" />
        </mxCell>
        <mxCell id="b7_qu-6GaD03MjOTZ5Wr-31" value="" style="group" vertex="1" connectable="0" parent="b7_qu-6GaD03MjOTZ5Wr-14">
          <mxGeometry x="30" y="40" width="70" height="88" as="geometry" />
        </mxCell>
        <mxCell id="b7_qu-6GaD03MjOTZ5Wr-1" value="" style="sketch=0;pointerEvents=1;shadow=0;dashed=0;html=1;strokeColor=none;fillColor=#DF8C42;labelPosition=center;verticalLabelPosition=bottom;verticalAlign=top;align=center;outlineConnect=0;shape=mxgraph.veeam2.restful_api;" vertex="1" parent="b7_qu-6GaD03MjOTZ5Wr-31">
          <mxGeometry width="70" height="60" as="geometry" />
        </mxCell>
        <mxCell id="b7_qu-6GaD03MjOTZ5Wr-2" value="IMDB API" style="text;html=1;strokeColor=none;fillColor=none;align=center;verticalAlign=middle;whiteSpace=wrap;rounded=0;" vertex="1" parent="b7_qu-6GaD03MjOTZ5Wr-31">
          <mxGeometry x="10" y="58" width="60" height="30" as="geometry" />
        </mxCell>
        <mxCell id="b7_qu-6GaD03MjOTZ5Wr-32" value="" style="group" vertex="1" connectable="0" parent="b7_qu-6GaD03MjOTZ5Wr-14">
          <mxGeometry x="35" y="128" width="70" height="90" as="geometry" />
        </mxCell>
        <mxCell id="b7_qu-6GaD03MjOTZ5Wr-3" value="" style="sketch=0;pointerEvents=1;shadow=0;dashed=0;html=1;strokeColor=none;fillColor=#DF8C42;labelPosition=center;verticalLabelPosition=bottom;verticalAlign=top;align=center;outlineConnect=0;shape=mxgraph.veeam2.restful_api;" vertex="1" parent="b7_qu-6GaD03MjOTZ5Wr-32">
          <mxGeometry width="70" height="60" as="geometry" />
        </mxCell>
        <mxCell id="b7_qu-6GaD03MjOTZ5Wr-4" value="RottenTomatoes API" style="text;html=1;strokeColor=none;fillColor=none;align=center;verticalAlign=middle;whiteSpace=wrap;rounded=0;" vertex="1" parent="b7_qu-6GaD03MjOTZ5Wr-32">
          <mxGeometry x="5" y="60" width="60" height="30" as="geometry" />
        </mxCell>
        <mxCell id="b7_qu-6GaD03MjOTZ5Wr-44" value="topic" style="sketch=0;aspect=fixed;pointerEvents=1;shadow=0;dashed=0;html=1;strokeColor=none;labelPosition=center;verticalLabelPosition=bottom;verticalAlign=top;align=center;fillColor=#00188D;shape=mxgraph.azure.queue_generic" vertex="1" parent="b7_qu-6GaD03MjOTZ5Wr-14">
          <mxGeometry x="160" y="150.5" width="50" height="15" as="geometry" />
        </mxCell>
        <mxCell id="b7_qu-6GaD03MjOTZ5Wr-46" value="topic" style="sketch=0;aspect=fixed;pointerEvents=1;shadow=0;dashed=0;html=1;strokeColor=none;labelPosition=center;verticalLabelPosition=bottom;verticalAlign=top;align=center;fillColor=#00188D;shape=mxgraph.azure.queue_generic" vertex="1" parent="b7_qu-6GaD03MjOTZ5Wr-14">
          <mxGeometry x="160" y="62.5" width="50" height="15" as="geometry" />
        </mxCell>
        <mxCell id="b7_qu-6GaD03MjOTZ5Wr-48" value="" style="edgeStyle=orthogonalEdgeStyle;rounded=0;orthogonalLoop=1;jettySize=auto;html=1;" edge="1" parent="b7_qu-6GaD03MjOTZ5Wr-14" source="b7_qu-6GaD03MjOTZ5Wr-3" target="b7_qu-6GaD03MjOTZ5Wr-44">
          <mxGeometry relative="1" as="geometry" />
        </mxCell>
        <mxCell id="b7_qu-6GaD03MjOTZ5Wr-49" value="" style="edgeStyle=orthogonalEdgeStyle;rounded=0;orthogonalLoop=1;jettySize=auto;html=1;" edge="1" parent="b7_qu-6GaD03MjOTZ5Wr-14" source="b7_qu-6GaD03MjOTZ5Wr-1" target="b7_qu-6GaD03MjOTZ5Wr-46">
          <mxGeometry relative="1" as="geometry" />
        </mxCell>
        <mxCell id="b7_qu-6GaD03MjOTZ5Wr-40" value="" style="group" vertex="1" connectable="0" parent="b7_qu-6GaD03MjOTZ5Wr-14">
          <mxGeometry x="30" y="230" width="60" height="100" as="geometry" />
        </mxCell>
        <mxCell id="b7_qu-6GaD03MjOTZ5Wr-10" value="" style="shape=image;html=1;verticalAlign=top;verticalLabelPosition=bottom;labelBackgroundColor=#ffffff;imageAspect=0;aspect=fixed;image=https://cdn3.iconfinder.com/data/icons/cad-database-presentation-spreadsheet-vector-fil-2/512/19-128.png" vertex="1" parent="b7_qu-6GaD03MjOTZ5Wr-40">
          <mxGeometry x="25" y="70" width="30" height="30" as="geometry" />
        </mxCell>
        <mxCell id="b7_qu-6GaD03MjOTZ5Wr-7" value="" style="shape=image;html=1;verticalAlign=top;verticalLabelPosition=bottom;labelBackgroundColor=#ffffff;imageAspect=0;aspect=fixed;image=https://cdn3.iconfinder.com/data/icons/cad-database-presentation-spreadsheet-vector-fil-2/512/19-128.png" vertex="1" parent="b7_qu-6GaD03MjOTZ5Wr-40">
          <mxGeometry y="70" width="30" height="30" as="geometry" />
        </mxCell>
        <mxCell id="b7_qu-6GaD03MjOTZ5Wr-38" value="" style="group" vertex="1" connectable="0" parent="b7_qu-6GaD03MjOTZ5Wr-40">
          <mxGeometry x="10" width="50" height="57.74" as="geometry" />
        </mxCell>
        <mxCell id="b7_qu-6GaD03MjOTZ5Wr-5" value="" style="sketch=0;outlineConnect=0;fontColor=#232F3E;gradientColor=none;fillColor=#067F68;strokeColor=none;dashed=0;verticalLabelPosition=bottom;verticalAlign=top;align=center;html=1;fontSize=12;fontStyle=0;aspect=fixed;shape=mxgraph.aws4.transfer_for_ftp_resource;" vertex="1" parent="b7_qu-6GaD03MjOTZ5Wr-38">
          <mxGeometry width="46.06564850695235" height="47.28206383589222" as="geometry" />
        </mxCell>
        <mxCell id="b7_qu-6GaD03MjOTZ5Wr-36" value="" style="edgeStyle=orthogonalEdgeStyle;rounded=0;orthogonalLoop=1;jettySize=auto;html=1;entryX=0.5;entryY=0;entryDx=0;entryDy=0;" edge="1" parent="b7_qu-6GaD03MjOTZ5Wr-40" source="b7_qu-6GaD03MjOTZ5Wr-5" target="b7_qu-6GaD03MjOTZ5Wr-7">
          <mxGeometry relative="1" as="geometry" />
        </mxCell>
        <mxCell id="b7_qu-6GaD03MjOTZ5Wr-39" style="edgeStyle=orthogonalEdgeStyle;rounded=0;orthogonalLoop=1;jettySize=auto;html=1;entryX=0.5;entryY=0;entryDx=0;entryDy=0;" edge="1" parent="b7_qu-6GaD03MjOTZ5Wr-40" source="b7_qu-6GaD03MjOTZ5Wr-5" target="b7_qu-6GaD03MjOTZ5Wr-10">
          <mxGeometry relative="1" as="geometry" />
        </mxCell>
        <mxCell id="b7_qu-6GaD03MjOTZ5Wr-15" value="" style="swimlane;html=1;startSize=20;fontStyle=0;collapsible=0;horizontal=0;swimlaneLine=0;fillColor=none;" vertex="1" parent="Vo65l_AbovjOqgqE3y9q-1">
          <mxGeometry x="840" y="30" width="210" height="330" as="geometry" />
        </mxCell>
        <mxCell id="b7_qu-6GaD03MjOTZ5Wr-21" value="Data Load Layer" style="text;html=1;strokeColor=none;fillColor=none;align=center;verticalAlign=middle;whiteSpace=wrap;rounded=0;" vertex="1" parent="b7_qu-6GaD03MjOTZ5Wr-15">
          <mxGeometry y="10" width="140" height="30" as="geometry" />
        </mxCell>
        <mxCell id="b7_qu-6GaD03MjOTZ5Wr-23" value="MongoDB" style="strokeWidth=2;html=1;shape=mxgraph.flowchart.database;whiteSpace=wrap;" vertex="1" parent="b7_qu-6GaD03MjOTZ5Wr-15">
          <mxGeometry x="60" y="130" width="60" height="60" as="geometry" />
        </mxCell>
        <mxCell id="b7_qu-6GaD03MjOTZ5Wr-24" value="&lt;br&gt;Postgre&lt;br&gt;SQL" style="strokeWidth=2;html=1;shape=mxgraph.flowchart.database;whiteSpace=wrap;" vertex="1" parent="b7_qu-6GaD03MjOTZ5Wr-15">
          <mxGeometry x="60" y="50" width="60" height="60" as="geometry" />
        </mxCell>
        <mxCell id="b7_qu-6GaD03MjOTZ5Wr-114" value="" style="sketch=0;html=1;aspect=fixed;strokeColor=none;shadow=0;align=center;verticalAlign=top;fillColor=#3B8DF1;shape=mxgraph.gcp2.big_query" vertex="1" parent="b7_qu-6GaD03MjOTZ5Wr-15">
          <mxGeometry x="65.35" y="215" width="59.4" height="60" as="geometry" />
        </mxCell>
        <mxCell id="b7_qu-6GaD03MjOTZ5Wr-112" value="Normalized and Transformed &lt;br&gt;Data" style="text;html=1;align=center;verticalAlign=middle;resizable=0;points=[];autosize=1;strokeColor=none;fillColor=none;" vertex="1" parent="b7_qu-6GaD03MjOTZ5Wr-15">
          <mxGeometry x="40" y="280" width="170" height="30" as="geometry" />
        </mxCell>
        <mxCell id="b7_qu-6GaD03MjOTZ5Wr-17" value="" style="swimlane;html=1;startSize=20;fontStyle=0;collapsible=0;horizontal=0;swimlaneLine=0;fillColor=none;" vertex="1" parent="Vo65l_AbovjOqgqE3y9q-1">
          <mxGeometry x="540" y="30" width="250" height="340" as="geometry" />
        </mxCell>
        <mxCell id="b7_qu-6GaD03MjOTZ5Wr-19" value="Data Ingestion Layer" style="text;html=1;strokeColor=none;fillColor=none;align=center;verticalAlign=middle;whiteSpace=wrap;rounded=0;" vertex="1" parent="b7_qu-6GaD03MjOTZ5Wr-17">
          <mxGeometry x="10" y="5" width="140" height="30" as="geometry" />
        </mxCell>
        <mxCell id="b7_qu-6GaD03MjOTZ5Wr-91" value="" style="swimlane;html=1;startSize=20;fontStyle=0;collapsible=0;horizontal=0;swimlaneLine=0;fillColor=none;" vertex="1" parent="b7_qu-6GaD03MjOTZ5Wr-17">
          <mxGeometry x="22.5" y="35" width="197.5" height="90" as="geometry" />
        </mxCell>
        <mxCell id="b7_qu-6GaD03MjOTZ5Wr-74" value="" style="strokeColor=#dddddd;shadow=1;strokeWidth=1;rounded=1;absoluteArcSize=1;arcSize=2;" vertex="1" parent="b7_qu-6GaD03MjOTZ5Wr-91">
          <mxGeometry x="38.75" y="27.5" width="120" height="35" as="geometry" />
        </mxCell>
        <mxCell id="b7_qu-6GaD03MjOTZ5Wr-75" value="Cloud&#xa;Dataflow" style="sketch=0;dashed=0;connectable=0;html=1;fillColor=#5184F3;strokeColor=none;shape=mxgraph.gcp2.hexIcon;prIcon=cloud_dataflow;part=1;labelPosition=right;verticalLabelPosition=middle;align=left;verticalAlign=middle;spacingLeft=5;fontColor=#999999;fontSize=12;" vertex="1" parent="b7_qu-6GaD03MjOTZ5Wr-74">
          <mxGeometry y="0.5" width="44" height="39" relative="1" as="geometry">
            <mxPoint x="5" y="-19.5" as="offset" />
          </mxGeometry>
        </mxCell>
        <mxCell id="b7_qu-6GaD03MjOTZ5Wr-94" value="" style="swimlane;html=1;startSize=20;fontStyle=0;collapsible=0;horizontal=0;swimlaneLine=0;fillColor=none;" vertex="1" parent="b7_qu-6GaD03MjOTZ5Wr-17">
          <mxGeometry x="22.5" y="170" width="197.5" height="150" as="geometry" />
        </mxCell>
        <mxCell id="b7_qu-6GaD03MjOTZ5Wr-80" value="" style="strokeColor=#dddddd;shadow=1;strokeWidth=1;rounded=1;absoluteArcSize=1;arcSize=2;" vertex="1" parent="b7_qu-6GaD03MjOTZ5Wr-94">
          <mxGeometry x="38.75000000000001" y="55" width="106.25" height="40" as="geometry" />
        </mxCell>
        <mxCell id="b7_qu-6GaD03MjOTZ5Wr-81" value="Cloud&#xa;Dataflow" style="sketch=0;dashed=0;connectable=0;html=1;fillColor=#5184F3;strokeColor=none;shape=mxgraph.gcp2.hexIcon;prIcon=cloud_dataflow;part=1;labelPosition=right;verticalLabelPosition=middle;align=left;verticalAlign=middle;spacingLeft=5;fontColor=#999999;fontSize=12;" vertex="1" parent="b7_qu-6GaD03MjOTZ5Wr-80">
          <mxGeometry y="0.5" width="44" height="39" relative="1" as="geometry">
            <mxPoint x="5" y="-19.5" as="offset" />
          </mxGeometry>
        </mxCell>
        <mxCell id="b7_qu-6GaD03MjOTZ5Wr-64" style="edgeStyle=orthogonalEdgeStyle;rounded=0;orthogonalLoop=1;jettySize=auto;html=1;entryX=0;entryY=0.5;entryDx=0;entryDy=0;" edge="1" parent="Vo65l_AbovjOqgqE3y9q-1" source="b7_qu-6GaD03MjOTZ5Wr-44" target="b7_qu-6GaD03MjOTZ5Wr-74">
          <mxGeometry relative="1" as="geometry">
            <mxPoint x="630" y="120" as="targetPoint" />
            <Array as="points">
              <mxPoint x="420" y="188" />
              <mxPoint x="420" y="130" />
              <mxPoint x="600" y="130" />
              <mxPoint x="600" y="110" />
            </Array>
          </mxGeometry>
        </mxCell>
        <mxCell id="b7_qu-6GaD03MjOTZ5Wr-67" value="json" style="edgeLabel;html=1;align=center;verticalAlign=middle;resizable=0;points=[];" vertex="1" connectable="0" parent="b7_qu-6GaD03MjOTZ5Wr-64">
          <mxGeometry x="-0.3714" y="2" relative="1" as="geometry">
            <mxPoint x="-31" y="-5" as="offset" />
          </mxGeometry>
        </mxCell>
        <mxCell id="b7_qu-6GaD03MjOTZ5Wr-52" value="" style="edgeStyle=orthogonalEdgeStyle;rounded=0;orthogonalLoop=1;jettySize=auto;html=1;entryX=0;entryY=0.25;entryDx=0;entryDy=0;" edge="1" parent="Vo65l_AbovjOqgqE3y9q-1" source="b7_qu-6GaD03MjOTZ5Wr-5" target="b7_qu-6GaD03MjOTZ5Wr-80">
          <mxGeometry relative="1" as="geometry">
            <mxPoint x="420" y="254" as="targetPoint" />
            <Array as="points">
              <mxPoint x="103" y="254" />
              <mxPoint x="601" y="254" />
            </Array>
          </mxGeometry>
        </mxCell>
        <mxCell id="b7_qu-6GaD03MjOTZ5Wr-61" value="batch" style="edgeLabel;html=1;align=center;verticalAlign=middle;resizable=0;points=[];" vertex="1" connectable="0" parent="b7_qu-6GaD03MjOTZ5Wr-52">
          <mxGeometry x="-0.2152" y="2" relative="1" as="geometry">
            <mxPoint as="offset" />
          </mxGeometry>
        </mxCell>
        <mxCell id="b7_qu-6GaD03MjOTZ5Wr-101" value="Pub/Sub | Kafka&lt;br&gt;(Streaming Ingestion)" style="text;html=1;align=center;verticalAlign=middle;resizable=0;points=[];autosize=1;strokeColor=none;fillColor=none;" vertex="1" parent="Vo65l_AbovjOqgqE3y9q-1">
          <mxGeometry x="365" y="45" width="130" height="30" as="geometry" />
        </mxCell>
        <mxCell id="b7_qu-6GaD03MjOTZ5Wr-106" style="edgeStyle=orthogonalEdgeStyle;rounded=0;orthogonalLoop=1;jettySize=auto;html=1;entryX=0;entryY=0.5;entryDx=0;entryDy=0;" edge="1" parent="Vo65l_AbovjOqgqE3y9q-1" source="b7_qu-6GaD03MjOTZ5Wr-46" target="b7_qu-6GaD03MjOTZ5Wr-74">
          <mxGeometry relative="1" as="geometry" />
        </mxCell>
        <mxCell id="b7_qu-6GaD03MjOTZ5Wr-107" value="json" style="edgeLabel;html=1;align=center;verticalAlign=middle;resizable=0;points=[];" vertex="1" connectable="0" parent="b7_qu-6GaD03MjOTZ5Wr-106">
          <mxGeometry x="-0.4561" y="2" relative="1" as="geometry">
            <mxPoint as="offset" />
          </mxGeometry>
        </mxCell>
        <mxCell id="ZHQN5C8F6dIZy70OHRzG-4" style="edgeStyle=orthogonalEdgeStyle;rounded=0;orthogonalLoop=1;jettySize=auto;html=1;" edge="1" parent="Vo65l_AbovjOqgqE3y9q-1" source="b7_qu-6GaD03MjOTZ5Wr-111" target="b7_qu-6GaD03MjOTZ5Wr-118">
          <mxGeometry relative="1" as="geometry" />
        </mxCell>
        <mxCell id="ZHQN5C8F6dIZy70OHRzG-10" style="edgeStyle=orthogonalEdgeStyle;rounded=0;orthogonalLoop=1;jettySize=auto;html=1;" edge="1" parent="Vo65l_AbovjOqgqE3y9q-1" source="b7_qu-6GaD03MjOTZ5Wr-111" target="ZHQN5C8F6dIZy70OHRzG-8">
          <mxGeometry relative="1" as="geometry" />
        </mxCell>
        <mxCell id="b7_qu-6GaD03MjOTZ5Wr-111" value="" style="sketch=0;html=1;aspect=fixed;strokeColor=none;shadow=0;align=center;verticalAlign=top;fillColor=#3B8DF1;shape=mxgraph.gcp2.big_query" vertex="1" parent="Vo65l_AbovjOqgqE3y9q-1">
          <mxGeometry x="925.15" y="394" width="39.6" height="40" as="geometry" />
        </mxCell>
        <mxCell id="b7_qu-6GaD03MjOTZ5Wr-115" value="C-Rating Calculation" style="text;html=1;align=center;verticalAlign=middle;resizable=0;points=[];autosize=1;strokeColor=none;fillColor=none;" vertex="1" parent="Vo65l_AbovjOqgqE3y9q-1">
          <mxGeometry x="880" y="428" width="130" height="20" as="geometry" />
        </mxCell>
        <mxCell id="b7_qu-6GaD03MjOTZ5Wr-116" value="" style="strokeColor=#dddddd;shadow=1;strokeWidth=1;rounded=1;absoluteArcSize=1;arcSize=14;" vertex="1" parent="Vo65l_AbovjOqgqE3y9q-1">
          <mxGeometry x="740" y="428" width="141" height="60" as="geometry" />
        </mxCell>
        <mxCell id="b7_qu-6GaD03MjOTZ5Wr-117" value="&lt;font color=&quot;#000000&quot;&gt;ScheduledSQL&lt;br&gt;&lt;/font&gt;Cloud Composer" style="sketch=0;dashed=0;connectable=0;html=1;fillColor=#5184F3;strokeColor=none;shape=mxgraph.gcp2.hexIcon;prIcon=cloud_composer;part=1;labelPosition=right;verticalLabelPosition=middle;align=left;verticalAlign=middle;spacingLeft=5;fontColor=#999999;fontSize=12;" vertex="1" parent="b7_qu-6GaD03MjOTZ5Wr-116">
          <mxGeometry y="0.5" width="30" height="29.5" relative="1" as="geometry">
            <mxPoint x="5" y="-19.5" as="offset" />
          </mxGeometry>
        </mxCell>
        <mxCell id="b7_qu-6GaD03MjOTZ5Wr-118" value="Search Engine&lt;br&gt;ElasticSearch" style="shadow=0;dashed=0;html=1;strokeColor=none;fillColor=#EF8F21;labelPosition=center;verticalLabelPosition=bottom;verticalAlign=top;align=center;outlineConnect=0;shape=mxgraph.veeam.reporting;" vertex="1" parent="Vo65l_AbovjOqgqE3y9q-1">
          <mxGeometry x="1105" y="480.2" width="44.8" height="44.8" as="geometry" />
        </mxCell>
        <mxCell id="b7_qu-6GaD03MjOTZ5Wr-108" value="" style="strokeColor=#dddddd;shadow=1;strokeWidth=1;rounded=1;absoluteArcSize=1;arcSize=2;" vertex="1" parent="Vo65l_AbovjOqgqE3y9q-1">
          <mxGeometry x="586.4100000000001" y="394" width="135.93" height="40" as="geometry" />
        </mxCell>
        <mxCell id="b7_qu-6GaD03MjOTZ5Wr-109" value="&lt;font color=&quot;#000000&quot;&gt;Raw_Data&lt;br&gt;&lt;/font&gt;Cloud Storage" style="sketch=0;dashed=0;connectable=0;html=1;fillColor=#5184F3;strokeColor=none;shape=mxgraph.gcp2.hexIcon;prIcon=cloud_storage;part=1;labelPosition=right;verticalLabelPosition=middle;align=left;verticalAlign=middle;spacingLeft=5;fontColor=#999999;fontSize=12;" vertex="1" parent="b7_qu-6GaD03MjOTZ5Wr-108">
          <mxGeometry y="0.5" width="44" height="39" relative="1" as="geometry">
            <mxPoint x="5" y="-19.5" as="offset" />
          </mxGeometry>
        </mxCell>
        <mxCell id="ZHQN5C8F6dIZy70OHRzG-0" style="edgeStyle=orthogonalEdgeStyle;rounded=0;orthogonalLoop=1;jettySize=auto;html=1;" edge="1" parent="Vo65l_AbovjOqgqE3y9q-1" source="b7_qu-6GaD03MjOTZ5Wr-80" target="b7_qu-6GaD03MjOTZ5Wr-108">
          <mxGeometry relative="1" as="geometry" />
        </mxCell>
        <mxCell id="ZHQN5C8F6dIZy70OHRzG-1" style="edgeStyle=orthogonalEdgeStyle;rounded=0;orthogonalLoop=1;jettySize=auto;html=1;entryX=0.02;entryY=0.51;entryDx=0;entryDy=0;entryPerimeter=0;" edge="1" parent="Vo65l_AbovjOqgqE3y9q-1" source="b7_qu-6GaD03MjOTZ5Wr-80" target="b7_qu-6GaD03MjOTZ5Wr-114">
          <mxGeometry relative="1" as="geometry" />
        </mxCell>
        <mxCell id="b7_qu-6GaD03MjOTZ5Wr-27" value="web app" style="aspect=fixed;html=1;points=[];align=center;image;fontSize=12;image=img/lib/azure2/containers/App_Services.svg;" vertex="1" parent="Vo65l_AbovjOqgqE3y9q-1">
          <mxGeometry x="1105" y="171.5" width="47" height="47" as="geometry" />
        </mxCell>
        <mxCell id="ZHQN5C8F6dIZy70OHRzG-2" value="" style="edgeStyle=orthogonalEdgeStyle;rounded=0;orthogonalLoop=1;jettySize=auto;html=1;endArrow=none;" edge="1" parent="Vo65l_AbovjOqgqE3y9q-1" source="b7_qu-6GaD03MjOTZ5Wr-15" target="b7_qu-6GaD03MjOTZ5Wr-27">
          <mxGeometry relative="1" as="geometry">
            <mxPoint x="1590" y="260" as="sourcePoint" />
            <mxPoint x="1590" y="414" as="targetPoint" />
          </mxGeometry>
        </mxCell>
        <mxCell id="ZHQN5C8F6dIZy70OHRzG-7" value="" style="group" vertex="1" connectable="0" parent="Vo65l_AbovjOqgqE3y9q-1">
          <mxGeometry x="1030" y="400" width="70" height="88" as="geometry" />
        </mxCell>
        <mxCell id="ZHQN5C8F6dIZy70OHRzG-8" value="" style="sketch=0;pointerEvents=1;shadow=0;dashed=0;html=1;strokeColor=none;fillColor=#DF8C42;labelPosition=center;verticalLabelPosition=bottom;verticalAlign=top;align=center;outlineConnect=0;shape=mxgraph.veeam2.restful_api;" vertex="1" parent="ZHQN5C8F6dIZy70OHRzG-7">
          <mxGeometry width="70" height="60" as="geometry" />
        </mxCell>
        <mxCell id="ZHQN5C8F6dIZy70OHRzG-11" value="Monitoring and Logging" style="whiteSpace=wrap;html=1;" vertex="1" parent="Vo65l_AbovjOqgqE3y9q-1">
          <mxGeometry x="170" y="500" width="890" height="90" as="geometry" />
        </mxCell>
        <mxCell id="ZHQN5C8F6dIZy70OHRzG-12" value="" style="sketch=0;points=[[0,0,0],[0.25,0,0],[0.5,0,0],[0.75,0,0],[1,0,0],[0,1,0],[0.25,1,0],[0.5,1,0],[0.75,1,0],[1,1,0],[0,0.25,0],[0,0.5,0],[0,0.75,0],[1,0.25,0],[1,0.5,0],[1,0.75,0]];points=[[0,0,0],[0.25,0,0],[0.5,0,0],[0.75,0,0],[1,0,0],[0,1,0],[0.25,1,0],[0.5,1,0],[0.75,1,0],[1,1,0],[0,0.25,0],[0,0.5,0],[0,0.75,0],[1,0.25,0],[1,0.5,0],[1,0.75,0]];outlineConnect=0;fontColor=#232F3E;gradientColor=#F34482;gradientDirection=north;fillColor=#BC1356;strokeColor=#ffffff;dashed=0;verticalLabelPosition=bottom;verticalAlign=top;align=center;html=1;fontSize=12;fontStyle=0;aspect=fixed;shape=mxgraph.aws4.resourceIcon;resIcon=mxgraph.aws4.managed_service_for_grafana;" vertex="1" parent="Vo65l_AbovjOqgqE3y9q-1">
          <mxGeometry x="470" y="525" width="40" height="40" as="geometry" />
        </mxCell>
        <mxCell id="ZHQN5C8F6dIZy70OHRzG-13" value="" style="sketch=0;points=[[0,0,0],[0.25,0,0],[0.5,0,0],[0.75,0,0],[1,0,0],[0,1,0],[0.25,1,0],[0.5,1,0],[0.75,1,0],[1,1,0],[0,0.25,0],[0,0.5,0],[0,0.75,0],[1,0.25,0],[1,0.5,0],[1,0.75,0]];points=[[0,0,0],[0.25,0,0],[0.5,0,0],[0.75,0,0],[1,0,0],[0,1,0],[0.25,1,0],[0.5,1,0],[0.75,1,0],[1,1,0],[0,0.25,0],[0,0.5,0],[0,0.75,0],[1,0.25,0],[1,0.5,0],[1,0.75,0]];outlineConnect=0;fontColor=#232F3E;gradientColor=#F34482;gradientDirection=north;fillColor=#BC1356;strokeColor=#ffffff;dashed=0;verticalLabelPosition=bottom;verticalAlign=top;align=center;html=1;fontSize=12;fontStyle=0;aspect=fixed;shape=mxgraph.aws4.resourceIcon;resIcon=mxgraph.aws4.managed_service_for_prometheus;" vertex="1" parent="Vo65l_AbovjOqgqE3y9q-1">
          <mxGeometry x="410" y="525" width="40" height="40" as="geometry" />
        </mxCell>
        <mxCell id="ZHQN5C8F6dIZy70OHRzG-14" style="edgeStyle=orthogonalEdgeStyle;rounded=0;orthogonalLoop=1;jettySize=auto;html=1;" edge="1" parent="Vo65l_AbovjOqgqE3y9q-1" source="b7_qu-6GaD03MjOTZ5Wr-74">
          <mxGeometry relative="1" as="geometry">
            <mxPoint x="900" y="100" as="targetPoint" />
          </mxGeometry>
        </mxCell>
        <mxCell id="ZHQN5C8F6dIZy70OHRzG-15" style="edgeStyle=orthogonalEdgeStyle;rounded=0;orthogonalLoop=1;jettySize=auto;html=1;entryX=0.423;entryY=0.063;entryDx=0;entryDy=0;entryPerimeter=0;" edge="1" parent="Vo65l_AbovjOqgqE3y9q-1" source="b7_qu-6GaD03MjOTZ5Wr-114" target="b7_qu-6GaD03MjOTZ5Wr-111">
          <mxGeometry relative="1" as="geometry" />
        </mxCell>
      </root>
    </mxGraphModel>
  </diagram>
  <diagram id="etJtIOZHt9ZYnU-06NJ4" name="c-movie-architectural-design">
    <mxGraphModel dx="1546" dy="750" grid="1" gridSize="10" guides="1" tooltips="1" connect="1" arrows="1" fold="1" page="1" pageScale="1" pageWidth="1169" pageHeight="827" math="0" shadow="0">
      <root>
        <mxCell id="eAqhO2_oMWIMBfvLYGH7-0" />
        <mxCell id="eAqhO2_oMWIMBfvLYGH7-1" parent="eAqhO2_oMWIMBfvLYGH7-0" />
        <mxCell id="6vtqUTw2mZ5lhCdmrkNE-10" value="" style="html=1;dashed=0;whiteSpace=wrap;" vertex="1" parent="eAqhO2_oMWIMBfvLYGH7-1">
          <mxGeometry x="250" y="30" width="370" height="150" as="geometry" />
        </mxCell>
        <mxCell id="6vtqUTw2mZ5lhCdmrkNE-1" value="Data Sources" style="text;html=1;align=center;verticalAlign=middle;whiteSpace=wrap;rounded=0;" vertex="1" parent="eAqhO2_oMWIMBfvLYGH7-1">
          <mxGeometry x="240" y="40" width="170" height="30" as="geometry" />
        </mxCell>
        <mxCell id="6vtqUTw2mZ5lhCdmrkNE-2" value="IMDb API" style="rounded=0;whiteSpace=wrap;html=1;" vertex="1" parent="eAqhO2_oMWIMBfvLYGH7-1">
          <mxGeometry x="300" y="95" width="70" height="50" as="geometry" />
        </mxCell>
        <mxCell id="6vtqUTw2mZ5lhCdmrkNE-4" value="RT API" style="rounded=0;whiteSpace=wrap;html=1;" vertex="1" parent="eAqhO2_oMWIMBfvLYGH7-1">
          <mxGeometry x="400" y="95" width="70" height="50" as="geometry" />
        </mxCell>
        <mxCell id="6vtqUTw2mZ5lhCdmrkNE-5" value="FTP Server&lt;br&gt;Files" style="rounded=0;whiteSpace=wrap;html=1;" vertex="1" parent="eAqhO2_oMWIMBfvLYGH7-1">
          <mxGeometry x="505" y="95" width="70" height="50" as="geometry" />
        </mxCell>
        <mxCell id="6vtqUTw2mZ5lhCdmrkNE-11" value="" style="html=1;dashed=0;whiteSpace=wrap;" vertex="1" parent="eAqhO2_oMWIMBfvLYGH7-1">
          <mxGeometry x="250" y="200" width="370" height="290" as="geometry" />
        </mxCell>
        <mxCell id="6vtqUTw2mZ5lhCdmrkNE-12" value="" style="html=1;dashed=0;whiteSpace=wrap;" vertex="1" parent="eAqhO2_oMWIMBfvLYGH7-1">
          <mxGeometry x="250" y="510" width="370" height="340" as="geometry" />
        </mxCell>
        <mxCell id="6vtqUTw2mZ5lhCdmrkNE-21" style="edgeStyle=orthogonalEdgeStyle;rounded=0;orthogonalLoop=1;jettySize=auto;html=1;entryX=0.5;entryY=0;entryDx=0;entryDy=0;" edge="1" parent="eAqhO2_oMWIMBfvLYGH7-1" source="6vtqUTw2mZ5lhCdmrkNE-13" target="6vtqUTw2mZ5lhCdmrkNE-14">
          <mxGeometry relative="1" as="geometry" />
        </mxCell>
        <mxCell id="6vtqUTw2mZ5lhCdmrkNE-13" value="Fetch Tasks" style="rounded=0;whiteSpace=wrap;html=1;" vertex="1" parent="eAqhO2_oMWIMBfvLYGH7-1">
          <mxGeometry x="400" y="240" width="70" height="50" as="geometry" />
        </mxCell>
        <mxCell id="6vtqUTw2mZ5lhCdmrkNE-22" style="edgeStyle=orthogonalEdgeStyle;rounded=0;orthogonalLoop=1;jettySize=auto;html=1;entryX=0.5;entryY=0;entryDx=0;entryDy=0;" edge="1" parent="eAqhO2_oMWIMBfvLYGH7-1" source="6vtqUTw2mZ5lhCdmrkNE-14" target="6vtqUTw2mZ5lhCdmrkNE-15">
          <mxGeometry relative="1" as="geometry" />
        </mxCell>
        <mxCell id="6vtqUTw2mZ5lhCdmrkNE-14" value="Validate Tasks" style="rounded=0;whiteSpace=wrap;html=1;" vertex="1" parent="eAqhO2_oMWIMBfvLYGH7-1">
          <mxGeometry x="400" y="310" width="70" height="60" as="geometry" />
        </mxCell>
        <mxCell id="6vtqUTw2mZ5lhCdmrkNE-18" style="edgeStyle=orthogonalEdgeStyle;rounded=0;orthogonalLoop=1;jettySize=auto;html=1;entryX=0;entryY=0.5;entryDx=0;entryDy=0;" edge="1" parent="eAqhO2_oMWIMBfvLYGH7-1" source="6vtqUTw2mZ5lhCdmrkNE-15" target="6vtqUTw2mZ5lhCdmrkNE-17">
          <mxGeometry relative="1" as="geometry" />
        </mxCell>
        <mxCell id="6vtqUTw2mZ5lhCdmrkNE-15" value="Store Raw Data" style="rounded=0;whiteSpace=wrap;html=1;" vertex="1" parent="eAqhO2_oMWIMBfvLYGH7-1">
          <mxGeometry x="400" y="393" width="70" height="50" as="geometry" />
        </mxCell>
        <mxCell id="6vtqUTw2mZ5lhCdmrkNE-74" style="edgeStyle=orthogonalEdgeStyle;rounded=0;orthogonalLoop=1;jettySize=auto;html=1;" edge="1" parent="eAqhO2_oMWIMBfvLYGH7-1" source="6vtqUTw2mZ5lhCdmrkNE-17">
          <mxGeometry relative="1" as="geometry">
            <mxPoint x="750" y="1170" as="targetPoint" />
          </mxGeometry>
        </mxCell>
        <mxCell id="6vtqUTw2mZ5lhCdmrkNE-17" value="MongoDB" style="shape=cylinder;whiteSpace=wrap;html=1;boundedLbl=1;backgroundOutline=1;" vertex="1" parent="eAqhO2_oMWIMBfvLYGH7-1">
          <mxGeometry x="515" y="378" width="60" height="80" as="geometry" />
        </mxCell>
        <mxCell id="6vtqUTw2mZ5lhCdmrkNE-23" value="Bronze Layer-Collection DAGs" style="text;html=1;align=center;verticalAlign=middle;whiteSpace=wrap;rounded=0;" vertex="1" parent="eAqhO2_oMWIMBfvLYGH7-1">
          <mxGeometry x="250" y="200" width="170" height="30" as="geometry" />
        </mxCell>
        <mxCell id="6vtqUTw2mZ5lhCdmrkNE-24" value="Silver Layer-Processing DAGs" style="text;html=1;align=center;verticalAlign=middle;whiteSpace=wrap;rounded=0;" vertex="1" parent="eAqhO2_oMWIMBfvLYGH7-1">
          <mxGeometry x="250" y="510" width="170" height="30" as="geometry" />
        </mxCell>
        <mxCell id="6vtqUTw2mZ5lhCdmrkNE-34" style="edgeStyle=orthogonalEdgeStyle;rounded=0;orthogonalLoop=1;jettySize=auto;html=1;exitX=0;exitY=0.5;exitDx=0;exitDy=0;" edge="1" parent="eAqhO2_oMWIMBfvLYGH7-1" source="6vtqUTw2mZ5lhCdmrkNE-25" target="6vtqUTw2mZ5lhCdmrkNE-26">
          <mxGeometry relative="1" as="geometry" />
        </mxCell>
        <mxCell id="6vtqUTw2mZ5lhCdmrkNE-37" style="edgeStyle=orthogonalEdgeStyle;rounded=0;orthogonalLoop=1;jettySize=auto;html=1;exitX=1;exitY=0.5;exitDx=0;exitDy=0;entryX=0.5;entryY=0;entryDx=0;entryDy=0;" edge="1" parent="eAqhO2_oMWIMBfvLYGH7-1" source="6vtqUTw2mZ5lhCdmrkNE-25" target="6vtqUTw2mZ5lhCdmrkNE-31">
          <mxGeometry relative="1" as="geometry" />
        </mxCell>
        <mxCell id="6vtqUTw2mZ5lhCdmrkNE-38" style="edgeStyle=orthogonalEdgeStyle;rounded=0;orthogonalLoop=1;jettySize=auto;html=1;exitX=0.5;exitY=1;exitDx=0;exitDy=0;entryX=0.5;entryY=0;entryDx=0;entryDy=0;" edge="1" parent="eAqhO2_oMWIMBfvLYGH7-1" source="6vtqUTw2mZ5lhCdmrkNE-25" target="6vtqUTw2mZ5lhCdmrkNE-29">
          <mxGeometry relative="1" as="geometry" />
        </mxCell>
        <mxCell id="6vtqUTw2mZ5lhCdmrkNE-25" value="Process Raw Data" style="rounded=0;whiteSpace=wrap;html=1;" vertex="1" parent="eAqhO2_oMWIMBfvLYGH7-1">
          <mxGeometry x="400" y="540" width="70" height="50" as="geometry" />
        </mxCell>
        <mxCell id="6vtqUTw2mZ5lhCdmrkNE-39" style="edgeStyle=orthogonalEdgeStyle;rounded=0;orthogonalLoop=1;jettySize=auto;html=1;exitX=0.5;exitY=1;exitDx=0;exitDy=0;entryX=0;entryY=0.5;entryDx=0;entryDy=0;" edge="1" parent="eAqhO2_oMWIMBfvLYGH7-1" source="6vtqUTw2mZ5lhCdmrkNE-26" target="6vtqUTw2mZ5lhCdmrkNE-32">
          <mxGeometry relative="1" as="geometry" />
        </mxCell>
        <mxCell id="6vtqUTw2mZ5lhCdmrkNE-26" value="Title Matching" style="rounded=0;whiteSpace=wrap;html=1;" vertex="1" parent="eAqhO2_oMWIMBfvLYGH7-1">
          <mxGeometry x="280" y="610" width="80" height="50" as="geometry" />
        </mxCell>
        <mxCell id="6vtqUTw2mZ5lhCdmrkNE-44" value="" style="edgeStyle=orthogonalEdgeStyle;rounded=0;orthogonalLoop=1;jettySize=auto;html=1;" edge="1" parent="eAqhO2_oMWIMBfvLYGH7-1" source="6vtqUTw2mZ5lhCdmrkNE-29" target="6vtqUTw2mZ5lhCdmrkNE-33">
          <mxGeometry relative="1" as="geometry" />
        </mxCell>
        <mxCell id="6vtqUTw2mZ5lhCdmrkNE-29" value="Genre Normalization" style="rounded=0;whiteSpace=wrap;html=1;" vertex="1" parent="eAqhO2_oMWIMBfvLYGH7-1">
          <mxGeometry x="400" y="610" width="80" height="50" as="geometry" />
        </mxCell>
        <mxCell id="6vtqUTw2mZ5lhCdmrkNE-43" style="edgeStyle=orthogonalEdgeStyle;rounded=0;orthogonalLoop=1;jettySize=auto;html=1;entryX=1;entryY=0.5;entryDx=0;entryDy=0;" edge="1" parent="eAqhO2_oMWIMBfvLYGH7-1" source="6vtqUTw2mZ5lhCdmrkNE-31" target="6vtqUTw2mZ5lhCdmrkNE-32">
          <mxGeometry relative="1" as="geometry" />
        </mxCell>
        <mxCell id="6vtqUTw2mZ5lhCdmrkNE-31" value="Rating Normalization" style="rounded=0;whiteSpace=wrap;html=1;" vertex="1" parent="eAqhO2_oMWIMBfvLYGH7-1">
          <mxGeometry x="520" y="610" width="80" height="50" as="geometry" />
        </mxCell>
        <mxCell id="6vtqUTw2mZ5lhCdmrkNE-32" value="C-Rating Calcultion" style="rounded=0;whiteSpace=wrap;html=1;" vertex="1" parent="eAqhO2_oMWIMBfvLYGH7-1">
          <mxGeometry x="400" y="690" width="80" height="50" as="geometry" />
        </mxCell>
        <mxCell id="6vtqUTw2mZ5lhCdmrkNE-73" style="edgeStyle=orthogonalEdgeStyle;rounded=0;orthogonalLoop=1;jettySize=auto;html=1;" edge="1" parent="eAqhO2_oMWIMBfvLYGH7-1" source="6vtqUTw2mZ5lhCdmrkNE-33">
          <mxGeometry relative="1" as="geometry">
            <mxPoint x="750" y="1180" as="targetPoint" />
          </mxGeometry>
        </mxCell>
        <mxCell id="6vtqUTw2mZ5lhCdmrkNE-33" value="Temp DB" style="shape=cylinder;whiteSpace=wrap;html=1;boundedLbl=1;backgroundOutline=1;" vertex="1" parent="eAqhO2_oMWIMBfvLYGH7-1">
          <mxGeometry x="407.5" y="770" width="55" height="52" as="geometry" />
        </mxCell>
        <mxCell id="6vtqUTw2mZ5lhCdmrkNE-45" value="" style="html=1;dashed=0;whiteSpace=wrap;" vertex="1" parent="eAqhO2_oMWIMBfvLYGH7-1">
          <mxGeometry x="250" y="880" width="370" height="230" as="geometry" />
        </mxCell>
        <mxCell id="6vtqUTw2mZ5lhCdmrkNE-46" value="Gold Layer-Storage DAGs" style="text;html=1;align=center;verticalAlign=middle;whiteSpace=wrap;rounded=0;" vertex="1" parent="eAqhO2_oMWIMBfvLYGH7-1">
          <mxGeometry x="250" y="880" width="150" height="30" as="geometry" />
        </mxCell>
        <mxCell id="6vtqUTw2mZ5lhCdmrkNE-50" value="" style="edgeStyle=orthogonalEdgeStyle;rounded=0;orthogonalLoop=1;jettySize=auto;html=1;" edge="1" parent="eAqhO2_oMWIMBfvLYGH7-1" source="6vtqUTw2mZ5lhCdmrkNE-47" target="6vtqUTw2mZ5lhCdmrkNE-48">
          <mxGeometry relative="1" as="geometry" />
        </mxCell>
        <mxCell id="6vtqUTw2mZ5lhCdmrkNE-51" style="edgeStyle=orthogonalEdgeStyle;rounded=0;orthogonalLoop=1;jettySize=auto;html=1;entryX=0.5;entryY=0;entryDx=0;entryDy=0;" edge="1" parent="eAqhO2_oMWIMBfvLYGH7-1" source="6vtqUTw2mZ5lhCdmrkNE-47" target="6vtqUTw2mZ5lhCdmrkNE-49">
          <mxGeometry relative="1" as="geometry" />
        </mxCell>
        <mxCell id="6vtqUTw2mZ5lhCdmrkNE-47" value="Saved Process Data" style="rounded=0;whiteSpace=wrap;html=1;" vertex="1" parent="eAqhO2_oMWIMBfvLYGH7-1">
          <mxGeometry x="400" y="940" width="70" height="50" as="geometry" />
        </mxCell>
        <mxCell id="6vtqUTw2mZ5lhCdmrkNE-48" value="PostgreSQL" style="shape=cylinder;whiteSpace=wrap;html=1;boundedLbl=1;backgroundOutline=1;" vertex="1" parent="eAqhO2_oMWIMBfvLYGH7-1">
          <mxGeometry x="307.5" y="1000" width="70" height="70" as="geometry" />
        </mxCell>
        <mxCell id="6vtqUTw2mZ5lhCdmrkNE-49" value="ElastichSearch" style="rounded=0;whiteSpace=wrap;html=1;" vertex="1" parent="eAqhO2_oMWIMBfvLYGH7-1">
          <mxGeometry x="485" y="1050" width="100" height="48" as="geometry" />
        </mxCell>
        <mxCell id="6vtqUTw2mZ5lhCdmrkNE-52" value="" style="html=1;dashed=0;whiteSpace=wrap;" vertex="1" parent="eAqhO2_oMWIMBfvLYGH7-1">
          <mxGeometry x="250" y="1126" width="370" height="230" as="geometry" />
        </mxCell>
        <mxCell id="6vtqUTw2mZ5lhCdmrkNE-53" value="Service Layer" style="text;html=1;align=center;verticalAlign=middle;whiteSpace=wrap;rounded=0;" vertex="1" parent="eAqhO2_oMWIMBfvLYGH7-1">
          <mxGeometry x="250" y="1126" width="90" height="30" as="geometry" />
        </mxCell>
        <mxCell id="6vtqUTw2mZ5lhCdmrkNE-58" style="edgeStyle=orthogonalEdgeStyle;rounded=0;orthogonalLoop=1;jettySize=auto;html=1;exitX=0.5;exitY=1;exitDx=0;exitDy=0;entryX=0.5;entryY=0;entryDx=0;entryDy=0;" edge="1" parent="eAqhO2_oMWIMBfvLYGH7-1" source="6vtqUTw2mZ5lhCdmrkNE-54" target="6vtqUTw2mZ5lhCdmrkNE-55">
          <mxGeometry relative="1" as="geometry" />
        </mxCell>
        <mxCell id="6vtqUTw2mZ5lhCdmrkNE-54" value="FAST API" style="rounded=0;whiteSpace=wrap;html=1;" vertex="1" parent="eAqhO2_oMWIMBfvLYGH7-1">
          <mxGeometry x="377.5" y="1150" width="70" height="50" as="geometry" />
        </mxCell>
        <mxCell id="6vtqUTw2mZ5lhCdmrkNE-61" style="edgeStyle=orthogonalEdgeStyle;rounded=0;orthogonalLoop=1;jettySize=auto;html=1;" edge="1" parent="eAqhO2_oMWIMBfvLYGH7-1" source="6vtqUTw2mZ5lhCdmrkNE-55" target="6vtqUTw2mZ5lhCdmrkNE-57">
          <mxGeometry relative="1" as="geometry" />
        </mxCell>
        <mxCell id="6vtqUTw2mZ5lhCdmrkNE-62" style="edgeStyle=orthogonalEdgeStyle;rounded=0;orthogonalLoop=1;jettySize=auto;html=1;exitX=0;exitY=0.5;exitDx=0;exitDy=0;entryX=0.5;entryY=0;entryDx=0;entryDy=0;" edge="1" parent="eAqhO2_oMWIMBfvLYGH7-1" source="6vtqUTw2mZ5lhCdmrkNE-55" target="6vtqUTw2mZ5lhCdmrkNE-56">
          <mxGeometry relative="1" as="geometry" />
        </mxCell>
        <mxCell id="6vtqUTw2mZ5lhCdmrkNE-55" value="Redis Cache" style="rounded=0;whiteSpace=wrap;html=1;" vertex="1" parent="eAqhO2_oMWIMBfvLYGH7-1">
          <mxGeometry x="377.5" y="1220" width="70" height="50" as="geometry" />
        </mxCell>
        <mxCell id="6vtqUTw2mZ5lhCdmrkNE-56" value="WEB App" style="rounded=0;whiteSpace=wrap;html=1;" vertex="1" parent="eAqhO2_oMWIMBfvLYGH7-1">
          <mxGeometry x="300" y="1290" width="70" height="50" as="geometry" />
        </mxCell>
        <mxCell id="6vtqUTw2mZ5lhCdmrkNE-57" value="External APIs" style="rounded=0;whiteSpace=wrap;html=1;" vertex="1" parent="eAqhO2_oMWIMBfvLYGH7-1">
          <mxGeometry x="480" y="1290" width="70" height="50" as="geometry" />
        </mxCell>
        <mxCell id="6vtqUTw2mZ5lhCdmrkNE-63" style="edgeStyle=orthogonalEdgeStyle;rounded=0;orthogonalLoop=1;jettySize=auto;html=1;exitX=0.5;exitY=1;exitDx=0;exitDy=0;entryX=0;entryY=0.5;entryDx=0;entryDy=0;" edge="1" parent="eAqhO2_oMWIMBfvLYGH7-1" source="6vtqUTw2mZ5lhCdmrkNE-48" target="6vtqUTw2mZ5lhCdmrkNE-54">
          <mxGeometry relative="1" as="geometry" />
        </mxCell>
        <mxCell id="6vtqUTw2mZ5lhCdmrkNE-64" style="edgeStyle=orthogonalEdgeStyle;rounded=0;orthogonalLoop=1;jettySize=auto;html=1;exitX=0.5;exitY=1;exitDx=0;exitDy=0;entryX=1;entryY=0.5;entryDx=0;entryDy=0;" edge="1" parent="eAqhO2_oMWIMBfvLYGH7-1" source="6vtqUTw2mZ5lhCdmrkNE-49" target="6vtqUTw2mZ5lhCdmrkNE-54">
          <mxGeometry relative="1" as="geometry" />
        </mxCell>
        <mxCell id="6vtqUTw2mZ5lhCdmrkNE-65" style="edgeStyle=orthogonalEdgeStyle;rounded=0;orthogonalLoop=1;jettySize=auto;html=1;exitX=0.5;exitY=1;exitDx=0;exitDy=0;entryX=0.5;entryY=0;entryDx=0;entryDy=0;" edge="1" parent="eAqhO2_oMWIMBfvLYGH7-1" source="6vtqUTw2mZ5lhCdmrkNE-33" target="6vtqUTw2mZ5lhCdmrkNE-47">
          <mxGeometry relative="1" as="geometry" />
        </mxCell>
        <mxCell id="6vtqUTw2mZ5lhCdmrkNE-66" style="edgeStyle=orthogonalEdgeStyle;rounded=0;orthogonalLoop=1;jettySize=auto;html=1;exitX=0.5;exitY=1;exitDx=0;exitDy=0;" edge="1" parent="eAqhO2_oMWIMBfvLYGH7-1" source="6vtqUTw2mZ5lhCdmrkNE-17" target="6vtqUTw2mZ5lhCdmrkNE-25">
          <mxGeometry relative="1" as="geometry" />
        </mxCell>
        <mxCell id="6vtqUTw2mZ5lhCdmrkNE-67" value="" style="html=1;dashed=0;whiteSpace=wrap;fontStyle=1" vertex="1" parent="eAqhO2_oMWIMBfvLYGH7-1">
          <mxGeometry x="640" y="1126" width="370" height="230" as="geometry" />
        </mxCell>
        <mxCell id="6vtqUTw2mZ5lhCdmrkNE-68" value="Data Quality &amp;amp; Observatilty" style="text;html=1;align=center;verticalAlign=middle;whiteSpace=wrap;rounded=0;" vertex="1" parent="eAqhO2_oMWIMBfvLYGH7-1">
          <mxGeometry x="640" y="1126" width="160" height="30" as="geometry" />
        </mxCell>
        <mxCell id="6vtqUTw2mZ5lhCdmrkNE-72" value="" style="edgeStyle=orthogonalEdgeStyle;rounded=0;orthogonalLoop=1;jettySize=auto;html=1;" edge="1" parent="eAqhO2_oMWIMBfvLYGH7-1" source="6vtqUTw2mZ5lhCdmrkNE-69" target="6vtqUTw2mZ5lhCdmrkNE-71">
          <mxGeometry relative="1" as="geometry" />
        </mxCell>
        <mxCell id="6vtqUTw2mZ5lhCdmrkNE-69" value="Monte Carlo" style="rounded=0;whiteSpace=wrap;html=1;" vertex="1" parent="eAqhO2_oMWIMBfvLYGH7-1">
          <mxGeometry x="710" y="1170" width="70" height="50" as="geometry" />
        </mxCell>
        <mxCell id="6vtqUTw2mZ5lhCdmrkNE-70" style="edgeStyle=orthogonalEdgeStyle;rounded=0;orthogonalLoop=1;jettySize=auto;html=1;entryX=0.571;entryY=0.2;entryDx=0;entryDy=0;entryPerimeter=0;" edge="1" parent="eAqhO2_oMWIMBfvLYGH7-1" source="6vtqUTw2mZ5lhCdmrkNE-48" target="6vtqUTw2mZ5lhCdmrkNE-69">
          <mxGeometry relative="1" as="geometry" />
        </mxCell>
        <mxCell id="6vtqUTw2mZ5lhCdmrkNE-71" value="Alerts" style="rounded=0;whiteSpace=wrap;html=1;" vertex="1" parent="eAqhO2_oMWIMBfvLYGH7-1">
          <mxGeometry x="840" y="1170" width="70" height="50" as="geometry" />
        </mxCell>
      </root>
    </mxGraphModel>
  </diagram>
</mxfile>
